<?xml version="1.0" encoding="utf-8"?>
<!-- Generator: Adobe Illustrator 21.0.0, SVG Export Plug-In . SVG Version: 6.00 Build 0)  -->
<svg version="1.1" id="Layer_1" xmlns="http://www.w3.org/2000/svg" xmlns:xlink="http://www.w3.org/1999/xlink" x="0px" y="0px"
	 viewBox="0 0 17.1 24" style="enable-background:new 0 0 17.1 24;" xml:space="preserve">
<style type="text/css">
	.st0{fill:#FFFFFF;}
</style>
<title></title>
<path class="st0" d="M13.7,20.6H0C0,22.5,1.5,24,3.4,24h10.3c1.9,0,3.4-1.5,3.4-3.4V6.5c0-0.1-0.1-0.1-0.1-0.1h-3.2
	c-0.1,0-0.1,0.1-0.1,0.1L13.7,20.6L13.7,20.6z M13.7,0c1.9,0,3.4,1.5,3.4,3.4H3.4v14.1c0,0.1-0.1,0.1-0.1,0.1H0.1
	c-0.1,0-0.1-0.1-0.1-0.1V3.4C0,1.5,1.5,0,3.4,0H13.7"/>
</svg>
